<?xml version="1.0" encoding="UTF-8"?>
<svg width="25px" height="24px" viewBox="0 0 25 24" version="1.1" xmlns="http://www.w3.org/2000/svg" xmlns:xlink="http://www.w3.org/1999/xlink">
    <!-- Generator: Sketch 43.1 (39012) - http://www.bohemiancoding.com/sketch -->
    <title>Group</title>
    <desc>Created with Sketch.</desc>
    <defs></defs>
    <g id="Page-1" stroke="none" stroke-width="1" fill="none" fill-rule="evenodd">
        <g id="Desktop" transform="translate(-69.000000, -889.000000)" fill-rule="nonzero">
            <g id="Group" transform="translate(69.000000, 889.000000)">
                <path d="M12.24,23.8394161 C5.63467439,23.8394161 0.28,18.502781 0.28,11.919708 C0.28,5.33663506 5.63467439,0 12.24,0 C18.8453256,0 24.2,5.33663506 24.2,11.919708 C24.2,18.502781 18.8453256,23.8394161 12.24,23.8394161 Z M12.24,20.729927 C17.1221972,20.729927 21.08,16.7854576 21.08,11.919708 C21.08,7.05395845 17.1221972,3.10948905 12.24,3.10948905 C7.35780281,3.10948905 3.4,7.05395845 3.4,11.919708 C3.4,16.7854576 7.35780281,20.729927 12.24,20.729927 Z" id="Oval-6" fill="#FFFFFF"></path>
                <path d="M12.24,18.1386861 C8.79374316,18.1386861 6,15.3543548 6,11.919708 C6,8.48506126 8.79374316,5.70072993 12.24,5.70072993 C15.6862568,5.70072993 18.48,8.48506126 18.48,11.919708 C18.48,15.3543548 15.6862568,18.1386861 12.24,18.1386861 Z M12.24,16.516344 C14.7872333,16.516344 16.8521739,14.45836 16.8521739,11.919708 C16.8521739,9.38105607 14.7872333,7.32307204 12.24,7.32307204 C9.69276668,7.32307204 7.62782609,9.38105607 7.62782609,11.919708 C7.62782609,14.45836 9.69276668,16.516344 12.24,16.516344 Z" id="Oval-6-Copy" stroke="#F0961D" stroke-width="2" fill="#F0961D"></path>
            </g>
        </g>
    </g>
</svg>