<?xml version="1.0" encoding="UTF-8"?>
<svg width="117px" height="72px" viewBox="0 0 117 72" version="1.1" xmlns="http://www.w3.org/2000/svg" xmlns:xlink="http://www.w3.org/1999/xlink">
    <!-- Generator: Sketch 43 (38999) - http://www.bohemiancoding.com/sketch -->
    <title>Group 3</title>
    <desc>Created with Sketch.</desc>
    <defs></defs>
    <g id="Page-1" stroke="none" stroke-width="1" fill="none" fill-rule="evenodd">
        <g id="Desktop" transform="translate(-98.000000, -26.000000)">
            <g id="Group-3" transform="translate(98.000000, 26.000000)">
                <g id="Group-2" transform="translate(0.000000, 30.058394)">
                    <path d="M9.29550781,0 L9.29550781,2.24962221 L6.3984375,2.7456019 L6.3984375,17.4832844 C6.3984375,19.4317858 6.95533297,20.9108533 8.06914062,21.9205313 C9.18294828,22.9302093 10.6522044,23.4350408 12.4769531,23.4350408 C14.396494,23.4350408 15.9427676,22.9331616 17.1158203,21.9293881 C18.2888731,20.9256147 18.8753906,19.4435949 18.8753906,17.4832844 L18.8753906,2.7456019 L15.9783203,2.24962221 L15.9783203,0 L25.2738281,0 L25.2738281,2.24962221 L22.3767578,2.7456019 L22.3767578,17.4832844 C22.3767578,20.282041 21.4614349,22.4283126 19.6307617,23.9221637 C17.8000885,25.4160148 15.4155095,26.1629291 12.4769531,26.1629291 C9.62133989,26.1629291 7.31081612,25.4160148 5.5453125,23.9221637 C3.77980888,22.4283126 2.89707031,20.282041 2.89707031,17.4832844 L2.89707031,2.7456019 L0,2.24962221 L0,0 L9.29550781,0 Z M54.2059375,0 L54.2059375,5.70376654 L51.22,5.70376654 L50.9533984,2.7456019 L45.2125781,2.7456019 L45.2125781,23.063056 L48.1096484,23.5590357 L48.1096484,25.7909443 L38.8141406,25.7909443 L38.8141406,23.5590357 L41.7112109,23.063056 L41.7112109,2.7456019 L35.9526172,2.7456019 L35.7037891,5.70376654 L32.7000781,5.70376654 L32.7000781,0 L54.2059375,0 Z M58.361875,23.5590357 L60.2814063,23.2933323 L69.3280859,0 L72.3317969,0 L81.2185156,23.2933323 L83.1202734,23.5590357 L83.1202734,25.7909443 L75.6909766,25.7909443 L75.6909766,23.5590357 L77.6460547,23.222478 L75.9398047,18.4752438 L65.5778906,18.4752438 L63.8183203,23.222478 L65.7733984,23.5590357 L65.7733984,25.7909443 L58.361875,25.7909443 L58.361875,23.5590357 Z M66.6620703,15.5525063 L74.8733984,15.5525063 L70.8566016,4.48153085 L70.7499609,4.48153085 L66.6620703,15.5525063 Z M91.0264062,2.24962221 L91.0264062,0 L100.321914,0 L100.321914,2.24962221 L97.4248437,2.7456019 L97.4248437,11.6555229 L109.972891,11.6555229 L109.972891,2.7456019 L107.07582,2.24962221 L107.07582,0 L116.371328,0 L116.371328,2.24962221 L113.474258,2.7456019 L113.474258,23.063056 L116.371328,23.5590357 L116.371328,25.7909443 L107.07582,25.7909443 L107.07582,23.5590357 L109.972891,23.063056 L109.972891,14.4011248 L97.4248437,14.4011248 L97.4248437,23.063056 L100.321914,23.5590357 L100.321914,25.7909443 L91.0264062,25.7909443 L91.0264062,23.5590357 L93.9234766,23.063056 L93.9234766,2.7456019 L91.0264062,2.24962221 Z" id="UTAH" fill="#F0961D"></path>
                    <text id="COUNTRY-GOLF" font-family="Roboto-Black, Roboto" font-size="10" font-weight="700" letter-spacing="1.83333313" fill="#323232">
                        <tspan x="12" y="40">COUNTRY GOLF</tspan>
                    </text>
                </g>
                <g id="Group" transform="translate(42.120000, 0.000000)">
                    <rect id="Rectangle-16" fill="#FFFFFF" x="0" y="11.919708" width="37.96" height="10.3649635"></rect>
                    <path d="M19.24,23.8394161 C12.6346744,23.8394161 7.28,18.502781 7.28,11.919708 C7.28,5.33663506 12.6346744,0 19.24,0 C25.8453256,0 31.2,5.33663506 31.2,11.919708 C31.2,18.502781 25.8453256,23.8394161 19.24,23.8394161 Z M19.24,20.729927 C24.1221972,20.729927 28.08,16.7854576 28.08,11.919708 C28.08,7.05395845 24.1221972,3.10948905 19.24,3.10948905 C14.3578028,3.10948905 10.4,7.05395845 10.4,11.919708 C10.4,16.7854576 14.3578028,20.729927 19.24,20.729927 Z" id="Oval-6" fill="#323232" fill-rule="nonzero"></path>
                    <path d="M19.24,18.1386861 C15.7937432,18.1386861 13,15.3543548 13,11.919708 C13,8.48506126 15.7937432,5.70072993 19.24,5.70072993 C22.6862568,5.70072993 25.48,8.48506126 25.48,11.919708 C25.48,15.3543548 22.6862568,18.1386861 19.24,18.1386861 Z M19.24,16.516344 C21.7872333,16.516344 23.8521739,14.45836 23.8521739,11.919708 C23.8521739,9.38105607 21.7872333,7.32307204 19.24,7.32307204 C16.6927667,7.32307204 14.6278261,9.38105607 14.6278261,11.919708 C14.6278261,14.45836 16.6927667,16.516344 19.24,16.516344 Z" id="Oval-6-Copy" stroke="#F0961D" stroke-width="2" fill="#F0961D" fill-rule="nonzero"></path>
                </g>
            </g>
        </g>
    </g>
</svg>
